<svg version="1.2" xmlns="http://www.w3.org/2000/svg" viewBox="0 0 128 128" width="128" height="128">
	<title>PB_icon</title>
	<defs>
		<linearGradient id="g1" x2="1" gradientUnits="userSpaceOnUse" gradientTransform="matrix(43,0,0,77,61,58.5)">
			<stop offset="0" stop-color="#ff0000"/>
			<stop offset=".587" stop-color="#ff0000"/>
			<stop offset=".839" stop-color="#ffdddd"/>
			<stop offset="1" stop-color="#ffffff"/>
		</linearGradient>
		<radialGradient id="g2" cx="0" cy="0" r="1" gradientUnits="userSpaceOnUse" gradientTransform="matrix(20.064,0,0,20.064,49.064,32.5)">
			<stop offset="0" stop-color="#ffffff"/>
			<stop offset="1" stop-color="#ff0000"/>
		</radialGradient>
	</defs>
	<style>
		tspan { white-space:pre } 
		.s0 { fill: #ff0000 } 
		.s1 { fill: url(#g1) } 
		.s2 { fill: url(#g2) } 
	</style>
	<path id="Shape 1" fill-rule="evenodd" class="s0" d="m63.5 116c-26.3 0-47.5-24.6-47.5-55 0-30.4 21.2-55 47.5-55 26.3 0 47.5 24.6 47.5 55 0 30.4-21.2 55-47.5 55z"/>
	<path id="Shape 2" fill-rule="evenodd" class="s1" d="m82.5 97c-11.9 0-21.5-17.2-21.5-38.5 0-21.3 9.6-38.5 21.5-38.5 11.9 0 21.5 17.2 21.5 38.5 0 21.3-9.6 38.5-21.5 38.5z"/>
	<path id="Shape 1 copy" fill-rule="evenodd" class="s0" d="m75 110c-11.6 0-21-22.1-21-49.5 0-27.4 9.4-49.5 21-49.5 11.6 0 21 22.1 21 49.5 0 27.4-9.4 49.5-21 49.5z"/>
	<path id="Layer 1" fill-rule="evenodd" class="s0" d="m64 109l8.9 15.5h-17.9z"/>
	<path id="Shape 3" fill-rule="evenodd" class="s2" d="m49.1 53c-11.1 0-20.1-9.2-20.1-20.5 0-11.3 9-20.5 20.1-20.5 11.1 0 20 9.2 20 20.5 0 11.3-8.9 20.5-20 20.5z"/>
</svg>